<svg xmlns="http://www.w3.org/2000/svg" viewBox="0 0 350.52 82.11"><title>MacForge Side</title><g id="Layer_2" data-name="Layer 2"><g id="MacForge_side" data-name="MacForge side"><g id="MacForge_Side-2" data-name="MacForge Side"><path d="M235.91,50.41c0-11.37,5.7-20,14.2-20s14.15,8.64,14.15,20-5.6,20-14.15,20S235.91,61.79,235.91,50.41Zm19.8,0c0-6.87-2-11.52-5.65-11.52s-5.6,4.65-5.6,11.52,1.92,11.45,5.6,11.45S255.71,57.28,255.71,50.41Z"/><path d="M269.7,31.55h8.09v5.91H278c1.86-4.5,4-6.5,7.25-6.5a3.22,3.22,0,0,1,1.66.3V41.6h-.21c-5.18-1-8.5,2.58-8.5,10.78v17H269.7Z"/><path d="M291.48,69.92h8.18a4.47,4.47,0,0,0,4.67,3.7c3.58,0,5.08-2.66,5.08-7.24V62.61h-.21c-1.55,2.51-3.57,4.36-6.79,4.36-6,0-11.5-6.35-11.5-17.95,0-11.08,4.56-18.91,11.14-18.91,3.52,0,5.91,2,7.46,5.17h.11V31.22h8.08V65.34c0,5.69-1.4,9.83-3.52,12.56-2.33,3-5.81,4.21-9.75,4.21C297.13,82.11,292.3,77.83,291.48,69.92Zm18.29-21.34c0-5.1-1.86-9.38-5.39-9.38-3.16,0-5.23,3.69-5.23,9.45S301.22,58,304.38,58C308.06,58,309.77,53.9,309.77,48.58Z"/><path d="M323.15,50.39c0-11.3,5.54-19.95,13.63-19.95a11.16,11.16,0,0,1,9.07,4.73c3.16,4.14,4.72,10.71,4.67,18.39H331.44c.52,5.1,2.49,8.28,6,8.28,2.23,0,3.68-1.41,4.41-3.77h8.24A16.45,16.45,0,0,1,345.59,67a11.32,11.32,0,0,1-8.29,3.47C328.54,70.48,323.15,61.84,323.15,50.39Zm18.81-4c-.31-4.51-2.28-7.39-5-7.39-3.22,0-4.88,2.88-5.45,7.39Z"/><polygon points="230.57 23.16 230.57 12.56 201.23 12.56 201.23 23.16 211.87 23.16 211.87 68.82 219.93 68.82 219.93 43.59 230.57 43.59 230.57 34.05 219.93 34.05 219.93 23.16 230.57 23.16"/><path d="M144,68.82V18.36h-.21L127.56,68.82h-.94L110.45,18.36h-.16V68.82h-1.14V16.52h2l16,49.93,16-49.93h2v52.3Z"/><path d="M171.88,61.06c0,1.29,0,2.65.13,4.1s.18,2.65.29,3.59h-1.09c-.07-.5-.12-1.1-.16-1.81s-.08-1.46-.13-2.22-.08-1.51-.1-2.25,0-1.36,0-1.85h-.15a12.63,12.63,0,0,1-3.58,6.91,8.08,8.08,0,0,1-5.44,2.25,7.53,7.53,0,0,1-2.88-.59,7.65,7.65,0,0,1-2.57-1.77,8.86,8.86,0,0,1-1.84-3,12.46,12.46,0,0,1-.7-4.36A11.35,11.35,0,0,1,155,54.19a10,10,0,0,1,3.3-3.43,11.58,11.58,0,0,1,4.22-1.59,26.51,26.51,0,0,1,4.12-.37h4.15V46.07q0-5.68-2.12-8.31a6.81,6.81,0,0,0-5.55-2.62,7.64,7.64,0,0,0-4,1.1,12.23,12.23,0,0,0-3.29,3l-.62-1.26A11.57,11.57,0,0,1,159,34.8a9.07,9.07,0,0,1,4.12-1.07,7.77,7.77,0,0,1,6.45,3q2.35,3,2.36,9.42Zm-1.14-10.85h-3.68a27.76,27.76,0,0,0-4.15.33,11.64,11.64,0,0,0-4,1.36,8.28,8.28,0,0,0-3,3A9.87,9.87,0,0,0,154.77,60a10.52,10.52,0,0,0,.65,3.95,7.23,7.23,0,0,0,1.66,2.55,6.3,6.3,0,0,0,2.23,1.4,6.65,6.65,0,0,0,2.31.45A6.81,6.81,0,0,0,166,67a10.17,10.17,0,0,0,2.83-3.58,16.93,16.93,0,0,0,1.48-4.8,33.64,33.64,0,0,0,.41-5.13Z"/><path d="M199.57,39.42a10.41,10.41,0,0,0-3.17-3.11,7.22,7.22,0,0,0-3.78-1.1,8,8,0,0,0-4.56,1.36,11.9,11.9,0,0,0-3.45,3.66,18.69,18.69,0,0,0-2.2,5.32,26.24,26.24,0,0,0,0,12.7,18.26,18.26,0,0,0,2.2,5.29,11.71,11.71,0,0,0,3.45,3.58,8.15,8.15,0,0,0,4.56,1.33,8.44,8.44,0,0,0,3.86-1,9.24,9.24,0,0,0,3.29-2.88l.78,1a9.37,9.37,0,0,1-3.65,3.21,9.82,9.82,0,0,1-4.28,1,9.19,9.19,0,0,1-4.85-1.33,12.53,12.53,0,0,1-3.83-3.69,18.61,18.61,0,0,1-2.55-5.69,29.57,29.57,0,0,1,0-14.48,19.13,19.13,0,0,1,2.55-5.72,12.71,12.71,0,0,1,3.83-3.77,9,9,0,0,1,4.85-1.37A8.62,8.62,0,0,1,197,35a10.75,10.75,0,0,1,3.5,3.33Z"/><g id="MF_Icon" data-name="MF Icon"><path d="M40.6,1.06a4,4,0,0,1,2.9,1.21L78.88,37.68a4.11,4.11,0,0,1,0,5.8L43.43,78.88a4.08,4.08,0,0,1-5.79,0L2.26,43.46a4.09,4.09,0,0,1,0-5.8L37.71,2.26a4.07,4.07,0,0,1,2.89-1.2M40.6,0A5.14,5.14,0,0,0,37,1.51L1.51,36.91a5.17,5.17,0,0,0,0,7.3L36.89,79.63a5.17,5.17,0,0,0,7.3,0l35.44-35.4a5.16,5.16,0,0,0,0-7.3L44.25,1.51A5.12,5.12,0,0,0,40.6,0Z"/><circle cx="40.57" cy="23.84" r="7.93"/><circle cx="23.65" cy="40.57" r="7.93"/><circle cx="40.57" cy="57.92" r="7.93"/><circle cx="57.58" cy="40.57" r="7.93"/></g></g></g></g></svg>