<svg xmlns="http://www.w3.org/2000/svg" viewBox="0 0 241.37 69.55"><title>MacForgeMacForge Type</title><g id="Layer_2" data-name="Layer 2"><g id="MacForge_side" data-name="MacForge side"><g id="MacForge"><path d="M126.75,37.85c0-11.38,5.71-20,14.21-20s14.15,8.64,14.15,20-5.6,20-14.15,20S126.75,49.23,126.75,37.85Zm19.81,0c0-6.87-2-11.52-5.65-11.52s-5.6,4.65-5.6,11.52,1.92,11.45,5.6,11.45S146.56,44.72,146.56,37.85Z"/><path d="M160.55,19h8.09V24.9h.15c1.87-4.51,4.05-6.5,7.26-6.5a3.24,3.24,0,0,1,1.66.29V29h-.21c-5.18-1-8.5,2.59-8.5,10.79v17h-8.45Z"/><path d="M182.32,57.36h8.19a4.48,4.48,0,0,0,4.67,3.69c3.58,0,5.08-2.66,5.08-7.24V50.05h-.21c-1.55,2.51-3.58,4.36-6.79,4.36-6,0-11.51-6.36-11.51-17.95,0-11.08,4.57-18.91,11.15-18.91,3.52,0,5.91,2,7.46,5.17h.11V18.65h8.08V52.78c0,5.69-1.4,9.82-3.52,12.56-2.33,3-5.81,4.21-9.75,4.21C188,69.55,183.15,65.26,182.32,57.36ZM200.62,36c0-5.09-1.86-9.38-5.39-9.38-3.16,0-5.23,3.69-5.23,9.46s2.07,9.38,5.23,9.38C198.91,45.47,200.62,41.33,200.62,36Z"/><path d="M214,37.82c0-11.3,5.54-19.94,13.63-19.94a11.13,11.13,0,0,1,9.07,4.73c3.16,4.13,4.72,10.71,4.67,18.39H222.29c.52,5.1,2.49,8.27,6,8.27,2.23,0,3.68-1.4,4.41-3.76h8.24a16.46,16.46,0,0,1-4.46,8.93,11.29,11.29,0,0,1-8.29,3.48C219.39,57.92,214,49.27,214,37.82Zm18.81-4c-.31-4.51-2.28-7.39-5-7.39-3.21,0-4.87,2.88-5.44,7.39Z"/><polygon points="121.42 10.6 121.42 0 92.08 0 92.08 10.6 102.72 10.6 102.72 56.25 110.77 56.25 110.77 31.03 121.42 31.03 121.42 21.49 110.77 21.49 110.77 10.6 121.42 10.6"/><path d="M34.84,56.25V5.8h-.21L18.4,56.25h-.93L1.3,5.8H1.14V56.25H0V4H2L18,53.89,34,4h2v52.3Z"/><path d="M62.73,48.5c0,1.28,0,2.65.13,4.1s.18,2.65.28,3.58H62.06a18.17,18.17,0,0,1-.16-1.81c0-.71-.08-1.45-.13-2.21s-.09-1.52-.1-2.26,0-1.35,0-1.84h-.15A12.67,12.67,0,0,1,57.91,55a8.12,8.12,0,0,1-5.45,2.26,7.52,7.52,0,0,1-2.87-.59A7.68,7.68,0,0,1,47,54.85a8.68,8.68,0,0,1-1.84-3,12.17,12.17,0,0,1-.7-4.35,11.32,11.32,0,0,1,1.32-5.84,9.92,9.92,0,0,1,3.3-3.44,11.38,11.38,0,0,1,4.22-1.58,25.24,25.24,0,0,1,4.12-.37h4.15V33.5q0-5.68-2.13-8.31a6.8,6.8,0,0,0-5.54-2.62,7.56,7.56,0,0,0-4,1.11,12.18,12.18,0,0,0-3.29,2.95L46,25.38a11.51,11.51,0,0,1,3.75-3.14,9.14,9.14,0,0,1,4.13-1.07,7.77,7.77,0,0,1,6.45,3q2.35,3,2.36,9.42ZM61.59,37.64H57.91a27.66,27.66,0,0,0-4.15.33,11.45,11.45,0,0,0-4,1.37,8.25,8.25,0,0,0-3,2.95,9.94,9.94,0,0,0-1.17,5.18,10.56,10.56,0,0,0,.65,4A7.1,7.1,0,0,0,47.93,54a6.44,6.44,0,0,0,2.23,1.4,6.62,6.62,0,0,0,2.3.44,6.81,6.81,0,0,0,4.41-1.4,10.26,10.26,0,0,0,2.83-3.58A16.77,16.77,0,0,0,61.17,46a32.26,32.26,0,0,0,.42-5.13Z"/><path d="M90.42,26.85a10.37,10.37,0,0,0-3.17-3.1,7.14,7.14,0,0,0-3.78-1.11A7.93,7.93,0,0,0,78.91,24a11.9,11.9,0,0,0-3.45,3.66A18.8,18.8,0,0,0,73.25,33a26.61,26.61,0,0,0,0,12.71A18.36,18.36,0,0,0,75.46,51a11.6,11.6,0,0,0,3.45,3.58,8.05,8.05,0,0,0,4.56,1.33,8.44,8.44,0,0,0,3.86-1A9.24,9.24,0,0,0,90.62,52l.78,1a9.61,9.61,0,0,1-3.65,3.21,10,10,0,0,1-4.28,1A9.28,9.28,0,0,1,78.62,56a12.6,12.6,0,0,1-3.84-3.7,18.78,18.78,0,0,1-2.54-5.68,27.66,27.66,0,0,1-.9-7.24,27.61,27.61,0,0,1,.9-7.24,19.32,19.32,0,0,1,2.54-5.73,12.82,12.82,0,0,1,3.84-3.76,9,9,0,0,1,4.85-1.37,8.52,8.52,0,0,1,4.33,1.18,10.82,10.82,0,0,1,3.5,3.32Z"/></g></g></g></svg>