<svg viewBox="0 0 17.09 17.09" xmlns="http://www.w3.org/2000/svg"><path d="m8.55.5a.59.59 0 0 1 .45.17l7.45 7.46a.59.59 0 0 1 .17.42.57.57 0 0 1 -.17.41l-7.45 7.46a.6.6 0 0 1 -.84 0l-7.49-7.42a.58.58 0 0 1 -.17-.45.59.59 0 0 1 .17-.42l7.47-7.46a.58.58 0 0 1 .41-.17m0-.5a1.09 1.09 0 0 0 -.76.32l-7.47 7.46a1.07 1.07 0 0 0 0 1.53l7.45 7.47a1.11 1.11 0 0 0 1.54 0l7.47-7.46a1.1 1.1 0 0 0 0-1.54l-7.46-7.46a1.09 1.09 0 0 0 -.77-.32z"/><circle cx="8.55" cy="5.12" r="1.5"/><circle cx="11.97" cy="8.55" r="1.5"/><circle cx="8.54" cy="11.98" r="1.5"/><circle cx="5.12" cy="8.55" r="1.5"/></svg>